<svg width="17" height="16" viewBox="0 0 17 16" fill="none" xmlns="http://www.w3.org/2000/svg">
<path d="M14.2398 2.0688C13.9331 1.76885 13.5172 1.60034 13.0835 1.60034C12.6499 1.60034 12.234 1.76885 11.9273 2.0688L5.72412 8.1376V10.4H8.03661L14.2398 4.3312C14.5464 4.03116 14.7186 3.62426 14.7186 3.2C14.7186 2.77574 14.5464 2.36884 14.2398 2.0688Z" fill="#3F3F46"/>
<path fill-rule="evenodd" clip-rule="evenodd" d="M1.63525 4.79995C1.63525 4.3756 1.80756 3.96864 2.11426 3.66858C2.42096 3.36852 2.83694 3.19995 3.27068 3.19995H6.54153C6.7584 3.19995 6.96639 3.28424 7.11974 3.43427C7.27309 3.5843 7.35924 3.78778 7.35924 3.99995C7.35924 4.21212 7.27309 4.41561 7.11974 4.56564C6.96639 4.71567 6.7584 4.79995 6.54153 4.79995H3.27068V12.8H11.4478V9.59995C11.4478 9.38778 11.534 9.1843 11.6873 9.03427C11.8407 8.88424 12.0486 8.79995 12.2655 8.79995C12.4824 8.79995 12.6904 8.88424 12.8437 9.03427C12.9971 9.1843 13.0832 9.38778 13.0832 9.59995V12.8C13.0832 13.2243 12.9109 13.6313 12.6042 13.9313C12.2975 14.2314 11.8815 14.4 11.4478 14.4H3.27068C2.83694 14.4 2.42096 14.2314 2.11426 13.9313C1.80756 13.6313 1.63525 13.2243 1.63525 12.8V4.79995Z" fill="#3F3F46"/>
</svg>
