<svg width="14" height="17" viewBox="0 0 14 17" fill="none" xmlns="http://www.w3.org/2000/svg">
<path fill-rule="evenodd" clip-rule="evenodd" d="M2.05002 2.04999C3.36284 0.73717 5.14341 -0.000366211 7.00002 -0.000366211C8.85663 -0.000366211 10.6372 0.73717 11.95 2.04999C13.2628 3.36281 14.0004 5.14338 14.0004 6.99999C14.0004 8.8566 13.2628 10.6372 11.95 11.95L7.00002 16.9L2.05002 11.95C1.39993 11.3 0.884251 10.5283 0.532423 9.67894C0.180596 8.82961 -0.000488281 7.9193 -0.000488281 6.99999C-0.000488281 6.08068 0.180596 5.17037 0.532423 4.32104C0.884251 3.47172 1.39993 2.70001 2.05002 2.04999ZM7.00002 8.99999C7.53045 8.99999 8.03916 8.78928 8.41423 8.4142C8.7893 8.03913 9.00002 7.53042 9.00002 6.99999C9.00002 6.46956 8.7893 5.96085 8.41423 5.58578C8.03916 5.2107 7.53045 4.99999 7.00002 4.99999C6.46958 4.99999 5.96088 5.2107 5.5858 5.58578C5.21073 5.96085 5.00002 6.46956 5.00002 6.99999C5.00002 7.53042 5.21073 8.03913 5.5858 8.4142C5.96088 8.78928 6.46958 8.99999 7.00002 8.99999Z" fill="#F4F4F5"/>
</svg>
