<svg width="16" height="16" viewBox="0 0 16 16" fill="none" xmlns="http://www.w3.org/2000/svg">
<path fill-rule="evenodd" clip-rule="evenodd" d="M7.1999 1.59998C7.05137 1.60005 6.9058 1.64148 6.77948 1.71962C6.65317 1.79775 6.5511 1.90951 6.4847 2.04238L5.9055 3.19998H3.1999C2.98773 3.19998 2.78425 3.28426 2.63422 3.43429C2.48419 3.58432 2.3999 3.7878 2.3999 3.99998C2.3999 4.21215 2.48419 4.41563 2.63422 4.56566C2.78425 4.71569 2.98773 4.79998 3.1999 4.79998V12.8C3.1999 13.2243 3.36847 13.6313 3.66853 13.9313C3.96859 14.2314 4.37556 14.4 4.7999 14.4H11.1999C11.6242 14.4 12.0312 14.2314 12.3313 13.9313C12.6313 13.6313 12.7999 13.2243 12.7999 12.8V4.79998C13.0121 4.79998 13.2156 4.71569 13.3656 4.56566C13.5156 4.41563 13.5999 4.21215 13.5999 3.99998C13.5999 3.7878 13.5156 3.58432 13.3656 3.43429C13.2156 3.28426 13.0121 3.19998 12.7999 3.19998H10.0943L9.5151 2.04238C9.44871 1.90951 9.34664 1.79775 9.22032 1.71962C9.09401 1.64148 8.94843 1.60005 8.7999 1.59998H7.1999ZM5.5999 6.39998C5.5999 6.1878 5.68419 5.98432 5.83422 5.83429C5.98425 5.68426 6.18773 5.59998 6.3999 5.59998C6.61208 5.59998 6.81556 5.68426 6.96559 5.83429C7.11562 5.98432 7.1999 6.1878 7.1999 6.39998V11.2C7.1999 11.4121 7.11562 11.6156 6.96559 11.7657C6.81556 11.9157 6.61208 12 6.3999 12C6.18773 12 5.98425 11.9157 5.83422 11.7657C5.68419 11.6156 5.5999 11.4121 5.5999 11.2V6.39998ZM9.5999 5.59998C9.38773 5.59998 9.18425 5.68426 9.03422 5.83429C8.88419 5.98432 8.7999 6.1878 8.7999 6.39998V11.2C8.7999 11.4121 8.88419 11.6156 9.03422 11.7657C9.18425 11.9157 9.38773 12 9.5999 12C9.81208 12 10.0156 11.9157 10.1656 11.7657C10.3156 11.6156 10.3999 11.4121 10.3999 11.2V6.39998C10.3999 6.1878 10.3156 5.98432 10.1656 5.83429C10.0156 5.68426 9.81208 5.59998 9.5999 5.59998Z" fill="#3F3F46"/>
</svg>
